<?xml version="1.0" encoding="utf-8"?>
<!-- Generator: Adobe Illustrator 23.0.4, SVG Export Plug-In . SVG Version: 6.00 Build 0)  -->
<svg version="1.1" id="Capa_1" xmlns="http://www.w3.org/2000/svg" xmlns:xlink="http://www.w3.org/1999/xlink" x="0px" y="0px"
	 viewBox="0 0 744.29 276.98" style="enable-background:new 0 0 744.29 276.98;" xml:space="preserve">
<style type="text/css">
	.st0{fill:#FFFFFF;}
</style>
<g>
	<path class="st0" d="M34,1.55C17.79,8.88,12.6,19.21,16.22,34.96c2.17,9.45,9.13,13.78,17.55,16.61
		c11.09,3.73,22.87,4.05,34.12,7.01c10.22,2.69,20.05,6.25,27.75,13.87c11.55,11.41,14.09,25.54,10.14,40.54
		c-3.73,14.2-14.2,22.41-28.02,26.52c-1.75,0.52-3.54,0.88-5.33,1.28c-0.3,0.07-0.63-0.05-1.66-0.16c3.07-1.72,5.64-3.16,8.21-4.59
		c16.94-9.45,14.8-39.04-2.4-47.65c-9.06-4.53-18.74-6.55-28.58-8.21c-11.87-2-23.42-4.99-33.44-12.11
		C6.81,62.57,2.46,54.92,0.87,45.69C-3.25,21.69,7.14,5.56,34,1.55z"/>
	<path class="st0" d="M423.2,102.92c-3.47,3.2-5.18,7.09-3.31,11.55c2.21,5.29,7.02,6.79,12.31,6.81
		c13.82,0.04,27.64-0.06,41.46-0.02c8,0.02,16,0.37,23.78,2.37c9.92,2.55,19.28,6.42,23.05,16.99c5.42,15.2,0.25,33.47-17.69,39.31
		c-3.58,1.17-7.09,2.84-11.54,2.46c2.53-1.1,4.67-1.86,6.66-2.91c8.39-4.42,12.07-10.87,11.16-19.35
		c-0.75-6.99-7.35-14.2-15.13-16.2c-3.85-0.99-7.75-1.64-11.81-1.61c-15.48,0.12-30.97,0.27-46.45-0.04
		c-8.9-0.17-17.25-2.52-22.56-10.54C406.06,121.09,410.8,107.26,423.2,102.92z"/>
	<path class="st0" d="M673.01,40.57c8.65,0,17.3,0.17,25.95-0.08c3.51-0.1,4.02,1.29,4.01,4.34c-0.1,26.14,0.05,52.28-0.13,78.41
		c-0.05,7.61,0.38,14.68,9.77,19.05c-14.47,0-27.19,0-39.92,0c8.3-4.17,7.88-11.76,7.84-19.36c-0.1-22.31-0.11-44.62,0.01-66.93
		C680.59,49.57,679.23,44.15,673.01,40.57z"/>
	<path class="st0" d="M264.91,142.23c9.78-4.67,10.21-12.23,10.12-20.37c-0.22-21.98-0.13-43.96-0.05-65.94
		c0.02-6.53-2.07-11.68-8.2-15.32c9.18,0,18.36-0.01,27.55,0.01c2.72,0.01,2.04,2.13,2.05,3.63c0.06,7.33,0.03,14.65,0.03,21.98
		c0,19.15,0.2,38.3-0.1,57.45c-0.12,7.96,1.61,14.46,10.49,18.57C292.49,142.23,279.51,142.23,264.91,142.23z"/>
	<path class="st0" d="M331.08,41.04c26.15,0.62,41.98,9.47,45.87,33.6c1.45,8.98,1.01,17.93,1.17,26.89
		c0.14,7.99,0.32,16.01-0.06,23.99c-0.33,7.05,1.11,12.88,9.42,16.68c-14.26,0-26.93,0-41.38,0c10.18-4.3,10.56-11.93,10.39-20.06
		c-0.34-16.31,0.49-32.64-1.2-48.91c-0.62-6-1.97-11.82-4.42-17.32C347.24,47.74,340.45,42.73,331.08,41.04z"/>
	<path class="st0" d="M187.16,40.94c26.68,0.67,42.91,10.9,45.36,36.05c1.54,15.8,0.52,31.6,0.81,47.39
		c0.19,10.63,0.39,11.38,8.72,17.98c-9.33,0-18.23-0.08-27.14,0.04c-3.81,0.05-3.23-2.68-3.25-4.84
		c-0.08-11.82,0.01-23.64-0.06-35.46c-0.06-8.82-0.11-17.64-0.47-26.45c-0.27-6.53-1.97-12.87-4.55-18.81
		C203.13,48.9,197.41,43.12,187.16,40.94z"/>
	<path class="st0" d="M648.38,142.37c-8.22,0-15.7,0-23.19,0c-7.11,0-7.12,0-7.12-6.9c-0.01-16.48,0.01-32.96-0.01-49.44
		c-0.01-8.18-1.02-16.22-3.33-24.11c-3.31-11.3-8.9-17.3-19.88-20.88c26.28,0.55,41.32,11.15,44.06,35.73
		c1.8,16.09,0.61,32.26,0.86,48.39C639.94,135.14,640.14,135.81,648.38,142.37z"/>
	<path class="st0" d="M471.73,100.42c14.18-6.24,19.97-15.88,19.3-32.54c-0.54-13.34-8.08-22.78-22.15-27.17
		c16.62,0,32.68,0,49.87,0c-4.68,1.75-8.22,3.77-9.19,7.82c-0.93,3.87-0.7,7.92,0.68,11.8c6.64,18.62-2.63,30.1-16.23,35.89
		C486.88,99.25,479.4,100.41,471.73,100.42z"/>
	<path class="st0" d="M173.76,82.02c-14.88,6.35-15.77,18.52-15.33,34.22c0.08,2.79,0.7,5.61,1.42,8.32
		c2.7,10.09,9.75,15.42,19.68,17.66c-11.25-1.43-22.92-0.91-32.99-7.06c-9.01-5.5-11.77-14.28-11.42-24.42
		c0.34-9.87,4.2-17.7,12.86-22.73C155.94,83.39,164.78,82.19,173.76,82.02z"/>
	<path class="st0" d="M581.51,81.72c-16.8,7.03-17.01,18.94-16.79,34.39c0.04,2.78,0.66,5.63,1.46,8.31
		c3.04,10.08,7.07,13.64,19.42,17.96c-10.8-1.73-21.99-1.3-32.07-6.8c-10.66-5.81-15.3-21.39-10.23-34.8
		c3.29-8.7,10.1-13.39,18.48-16.06C567.78,82.8,574.02,81.71,581.51,81.72z"/>
	<path class="st0" d="M456.49,40.8c-12.39,3.32-19.43,11.31-21.32,24.54c-2.13,14.9,4.34,27.05,19.49,35.46
		c-12.5-0.71-23.59-2.99-32.44-11.09c-15.05-13.76-10.62-35.49,9.02-44.05C439.17,42.21,447.69,40.7,456.49,40.8z"/>
	<path class="st0" d="M1.06,99.53c7.26,21.03,20.67,36.19,50.1,42.83c-16.34,0-31.75-0.02-47.15,0.03
		c-2.17,0.01-2.96-0.94-2.96-2.98C1.07,126.12,1.06,112.83,1.06,99.53z"/>
	<path class="st0" d="M99.19,38.34c-6.19-20.38-19.85-32.4-40.26-37.3c0.8-1.43,2.11-0.98,3.17-0.98
		c10.97,0.02,21.94,0.22,32.91,0.1c1.76-0.02,3.24,0.28,3.88,1.05c0.56,0.68,0.38,1.72,0.36,3.23
		C99.09,15.74,99.19,27.04,99.19,38.34z"/>
	<path class="st0" d="M420.12,152.32c4.72,15.36,14.19,25.67,30.71,29.92c-4.14,1.57-7.69,1.11-11.17,1.16
		c-5.32,0.08-10.64,0-15.96,0.02c-1.98,0.01-3.63-0.11-3.61-2.82C420.16,171.18,420.12,161.75,420.12,152.32z"/>
	<path class="st0" d="M744.28,68.15c-5.87-14.92-14.89-20.03-32.34-17.03c9.55-6.88,19.14-10.21,29.84-10.56
		c2.51-0.08,2.53,1.4,2.52,3.19C744.26,51.89,744.28,60.02,744.28,68.15z"/>
	<path class="st0" d="M555.2,63.66c-1.17-6.92-0.9-13.84-0.71-20.76c0.06-1.94,1.37-2.35,3.09-2.34c7.82,0.04,15.64,0.02,23.59,0.28
		C568.39,43.74,560.08,51.52,555.2,63.66z"/>
	<path class="st0" d="M148.15,63.87c0-6.77,0-13.55,0-20.32c0-2,0.78-3.02,2.99-3c7.79,0.08,15.58,0.03,23.47,0.31
		C161.82,43.86,153.58,51.75,148.15,63.87z"/>
</g>
<g>
	<path class="st0" d="M184.64,270.21l2.02-2.32c4.58,4.22,8.8,6.18,14.93,6.18c6.24,0,10.52-3.51,10.52-8.27v-0.12
		c0-4.4-2.32-6.96-11.77-8.86c-9.99-2.02-14.03-5.41-14.03-11.71v-0.12c0-6.18,5.65-10.94,13.38-10.94c6.06,0,10.05,1.67,14.27,5.05
		l-1.96,2.44c-3.92-3.39-7.85-4.7-12.43-4.7c-6.12,0-10.17,3.51-10.17,7.85v0.12c0,4.4,2.26,7.08,12.13,9.1
		c9.63,1.96,13.68,5.41,13.68,11.48v0.12c0,6.72-5.77,11.36-13.8,11.36C194.74,276.87,189.63,274.67,184.64,270.21z"/>
	<path class="st0" d="M265.74,237.5h-14.51v-2.85h32.11v2.85h-14.51v38.77h-3.09V237.5z"/>
	<path class="st0" d="M321.81,258.97v-24.32h3.09v24.02c0,9.81,5.29,15.46,14.09,15.46c8.44,0,13.85-5.11,13.85-15.16v-24.32h3.09
		v23.96c0,11.95-6.96,18.32-17.07,18.32C328.89,276.93,321.81,270.62,321.81,258.97z"/>
	<path class="st0" d="M397.39,234.65h13.86c13.08,0,22.12,8.98,22.12,20.69v0.12c0,11.71-9.04,20.81-22.12,20.81h-13.86V234.65z
		 M411.24,273.42c11.59,0,18.91-7.91,18.91-17.84v-0.12c0-9.87-7.31-17.96-18.91-17.96h-10.76v35.92H411.24z"/>
	<path class="st0" d="M474.03,234.65h3.09v41.62h-3.09V234.65z"/>
	<path class="st0" d="M517.79,255.58v-0.12c0-11.36,8.38-21.53,20.99-21.53c12.61,0,20.87,10.05,20.87,21.41v0.12
		c0,11.36-8.38,21.53-20.99,21.53C526.06,276.98,517.79,266.93,517.79,255.58z M556.45,255.58v-0.12c0-10.29-7.49-18.73-17.78-18.73
		s-17.66,8.32-17.66,18.61v0.12c0,10.29,7.49,18.73,17.78,18.73S556.45,265.86,556.45,255.58z"/>
</g>
</svg>
